<?xml version="1.0" encoding="UTF-8" standalone="no"?>
<!DOCTYPE svg PUBLIC "-//W3C//DTD SVG 1.1//EN" "http://www.w3.org/Graphics/SVG/1.1/DTD/svg11.dtd">
<svg xmlns="http://www.w3.org/2000/svg" xmlns:xlink="http://www.w3.org/1999/xlink" version="1.1" width="235pt" height="57pt" viewBox="0 0 235 57">
<g enable-background="new">
<clipPath id="cp0">
<path transform="matrix(1,0,0,-1,0,57)" d="M 0 0 L 234.368 0 L 234.368 56.016 L 0 56.016 Z "/>
</clipPath>
<g clip-path="url(#cp0)">
<path transform="matrix(1,0,0,-1,0,57)" d="M 17.04 46.8 C 19.999 50.64 23.22 53.28 26.7 54.72 C 30.18 56.16 33.24 56.4 35.88 55.44 C 38.521 54.479 40.561 52.639 42 49.92 L 33.96 45 C 33.319 46.519 32.46 47.82 31.38 48.9 C 30.3 49.979 29.04 50.7 27.601 51.06 C 26.16 51.42 24.499 51.12 22.62 50.16 C 20.739 49.2 18.88 47.56 17.04 45.24 L 17.04 6.6 C 17.04 5.4 17.299 4.44 17.82 3.72 C 18.34 3 20.839 1.2 21 .96 L 0 .96 C .159 1.2 2.659 3 3.18 3.72 C 3.699 4.44 3.96 5.4 3.96 6.6 L 3.96 45.36 C 3.96 46.56 3.699 47.52 3.18 48.24 C 2.659 48.96 .159 50.76 0 51 L 17.04 54.96 L 17.04 46.8 "/>
</g>
<path transform="matrix(1,0,0,-1,0,57)" d="M 64.8 3.12 C 66.72 1.68 69 .96 71.64 .96 C 74.28 .96 76.578 1.68 78.54 3.12 C 80.499 4.56 82.02 6.559 83.1 9.12 C 84.18 11.68 84.96 14.52 85.439 17.64 C 85.92 20.76 86.16 24.198 86.16 27.96 C 86.16 31.72 85.92 35.16 85.439 38.28 C 84.96 41.4 84.18 44.238 83.1 46.8 C 82.02 49.359 80.499 51.36 78.54 52.8 C 76.578 54.24 74.28 54.96 71.64 54.96 C 69.879 54.96 68.259 54.64 66.78 54 C 65.299 53.358 64.039 52.419 63 51.18 C 61.959 49.938 61.06 48.499 60.3 46.86 C 59.539 45.22 58.938 43.359 58.5 41.28 C 58.06 39.198 57.738 37.08 57.54 34.92 C 57.339 32.76 57.24 30.439 57.24 27.96 C 57.24 24.198 57.479 20.76 57.96 17.64 C 58.439 14.52 59.22 11.68 60.3 9.12 C 61.38 6.559 62.88 4.56 64.8 3.12 Z M 51.899 47.76 C 57.379 53.199 63.979 55.92 71.7 55.92 C 79.419 55.92 86.02 53.199 91.5 47.76 C 96.979 42.318 99.72 35.719 99.72 27.96 C 99.72 20.199 96.979 13.6 91.5 8.16 C 86.02 2.719 79.419 0 71.7 0 C 63.979 0 57.379 2.719 51.899 8.16 C 46.419 13.6 43.68 20.199 43.68 27.96 C 43.68 35.719 46.419 42.318 51.899 47.76 "/>
<path transform="matrix(1,0,0,-1,0,57)" d="M 147 54.96 L 154.2 54.96 C 154.039 54.72 151.84 52.8 151.2 52.08 C 150.56 51.36 150 50.439 149.521 49.32 L 129 .96 L 127.92 .96 L 106.44 49.32 C 105.96 50.358 105.24 51.259 104.28 52.02 C 103.32 52.779 100.12 54.72 99.96 54.96 L 120.96 54.96 C 120.88 54.799 119.899 53.76 119.7 53.52 C 119.5 53.28 119.319 52.979 119.16 52.62 C 118.999 52.26 118.939 51.799 118.98 51.24 C 119.02 50.68 119.2 50.079 119.521 49.44 L 134.761 17.04 C 134.761 17.04 148.53 49.25 148.561 49.32 C 148.973 50.285 149.292 51.194 148.891 52.283 C 148.499 53.344 148.066 54.246 147 54.96 "/>
<path transform="matrix(1,0,0,-1,0,57)" d="M 231.134 4.194 C 228.978 2.036 226.341 .96 223.218 .96 C 220.097 .96 217.456 2.036 215.302 4.194 C 213.146 6.346 212.068 8.989 212.068 12.11 C 212.068 15.232 213.146 17.871 215.302 20.027 C 217.456 22.181 220.097 23.261 223.218 23.261 C 226.341 23.261 228.978 22.181 231.134 20.027 C 233.288 17.871 234.368 15.232 234.368 12.11 C 234.368 8.989 233.288 6.346 231.134 4.194 "/>
<path transform="matrix(1,0,0,-1,0,57)" d="M 178.334 5.7 C 175.733 5.1 173.493 5.839 171.614 7.92 C 169.733 9.999 168.794 13.359 168.794 18 C 168.794 19.999 169.073 21.979 169.633 23.94 C 170.193 25.899 171.092 27.799 172.334 29.64 C 173.573 31.48 175.073 33 176.834 34.2 C 179.793 36.12 181.892 37.56 183.133 38.52 C 184.373 39.479 185.273 40.479 185.834 41.52 L 185.834 10.68 C 183.434 7.959 180.932 6.3 178.334 5.7 Z M 202.874 4.92 C 202.713 5.16 200.192 6.96 199.633 7.68 C 199.073 8.4 198.794 9.36 198.794 10.56 L 198.794 39 C 198.794 44.199 196.892 48.318 193.093 51.36 C 189.4 54.313 184.433 55.82 178.2 55.912 C 178.122 55.914 177.776 55.92 177.665 55.91 C 173.056 55.938 169.153 55.092 165.974 53.35 C 162.67 51.542 160.565 49.308 159.658 46.65 C 158.751 43.99 158.907 41.232 160.123 38.407 L 160.168 38.433 L 168.208 43.353 C 167.885 44.242 167.673 45.143 167.574 46.056 C 167.411 47.574 167.639 49.007 168.261 50.354 C 168.883 51.702 170.158 52.809 172.084 53.671 C 175.599 55.244 181.151 55.779 183.733 52.26 C 185.053 50.46 185.714 48.36 185.714 45.96 C 185.714 45.72 185.714 45.439 185.714 45.12 C 185.632 44.238 185.414 43.44 185.053 42.72 C 184.694 42 184.253 41.358 183.733 40.8 C 183.213 40.239 182.453 39.679 181.454 39.12 C 180.453 38.56 179.493 38.059 178.574 37.62 C 177.653 37.18 176.393 36.64 174.794 36 C 173.193 35.28 171.993 34.74 171.194 34.38 C 170.393 34.02 169.193 33.438 167.593 32.64 C 165.993 31.839 164.774 31.119 163.934 30.48 C 163.093 29.839 162.074 28.98 160.874 27.9 C 159.673 26.82 158.774 25.74 158.173 24.66 C 157.574 23.58 157.034 22.3 156.553 20.82 C 156.074 19.339 155.834 17.76 155.834 16.08 C 155.834 11.439 157.154 7.6 159.794 4.56 C 162.434 1.519 165.794 0 169.874 0 C 172.994 0 175.973 .96 178.814 2.88 C 181.653 4.8 183.992 6.96 185.834 9.36 L 185.834 .96 L 202.874 4.92 "/>
</g>
</svg>
