<?xml version="1.0" standalone="no"?>
<!DOCTYPE svg PUBLIC "-//W3C//DTD SVG 20010904//EN"
 "http://www.w3.org/TR/2001/REC-SVG-20010904/DTD/svg10.dtd">
<svg version="1.0" xmlns="http://www.w3.org/2000/svg"
 width="4418.000000pt" height="2138.000000pt" viewBox="0 0 4418.000000 2138.000000"
 preserveAspectRatio="xMidYMid meet">

<g transform="translate(0.000000,2138.000000) scale(0.100000,-0.100000)"
fill="#000000" stroke="none">
<path d="M0 21356 c0 -7 30 -32 68 -54 333 -198 536 -435 642 -748 62 -183 95
-397 110 -713 13 -275 13 -6934 0 -7221 -33 -752 -192 -1085 -664 -1395 -109
-71 -136 -94 -136 -112 l0 -23 3794 0 3794 0 6 28 c10 47 456 3037 456 3055 0
14 -11 17 -73 17 l-73 0 -38 -117 c-217 -664 -615 -1308 -1066 -1722 -511
-469 -1082 -743 -1756 -841 -232 -33 -474 -40 -1491 -40 l-973 0 0 4228 c1
2352 5 4322 10 4442 13 319 42 491 112 657 74 178 211 334 411 467 64 43 117
84 117 92 0 12 -245 14 -1625 14 -1378 0 -1625 -2 -1625 -14z"/>
<path d="M15740 21356 c0 -8 48 -40 107 -71 142 -75 241 -144 337 -235 216
-206 307 -445 336 -886 12 -190 30 -7526 19 -7889 -10 -298 -35 -462 -93 -606
-75 -187 -222 -333 -493 -495 -46 -27 -83 -54 -83 -61 0 -10 324 -13 1625 -13
1373 0 1625 2 1625 14 0 7 -42 39 -94 69 -228 137 -373 275 -450 429 -82 166
-114 349 -122 703 -11 455 -21 2706 -13 2859 46 875 363 1503 881 1746 348
163 798 144 1085 -47 226 -150 392 -424 457 -758 42 -215 41 -193 38 -1650 -1
-908 2 -1456 8 -1560 26 -385 90 -691 207 -985 92 -233 161 -348 282 -473 164
-170 364 -267 652 -316 248 -43 488 -38 1047 19 158 16 308 30 335 30 40 0 47
3 47 19 0 13 -25 34 -81 67 -310 181 -465 361 -528 610 -58 231 -61 348 -61
2254 0 1078 -4 1739 -11 1815 -87 1015 -563 1706 -1349 1960 -134 43 -305 80
-442 94 -139 15 -444 13 -579 -3 -489 -61 -908 -260 -1253 -595 -309 -301
-524 -661 -687 -1151 l-58 -175 -1 2648 0 2647 -1345 0 c-1152 0 -1345 -2
-1345 -14z"/>
<path d="M11952 18034 c-1085 -118 -2012 -700 -2543 -1596 -396 -667 -559
-1467 -473 -2318 173 -1711 1363 -2867 3099 -3011 197 -16 607 -6 801 20 709
96 1293 369 1740 816 157 156 241 258 349 420 131 197 228 390 316 628 35 97
109 345 109 369 0 4 -18 17 -40 28 l-39 20 -55 -112 c-123 -256 -266 -459
-455 -649 -345 -344 -746 -536 -1264 -604 -155 -20 -469 -20 -624 0 -784 103
-1381 578 -1708 1360 -162 387 -264 916 -265 1373 l0 82 1644 0 c1789 0 1722
-2 1895 56 385 129 666 460 737 868 23 128 14 308 -20 439 -14 53 -50 152 -80
220 -357 804 -1000 1322 -1891 1521 -136 31 -351 63 -510 76 -166 14 -575 11
-723 -6z m543 -259 c176 -31 314 -103 446 -234 268 -267 421 -751 479 -1516
12 -157 29 -615 30 -772 l0 -103 -1269 0 -1269 0 4 63 c26 449 60 720 130
1037 175 792 528 1335 971 1491 136 48 320 61 478 34z"/>
<path d="M15875 10290 c-10 -16 1 -26 90 -80 186 -112 372 -282 468 -427 135
-204 206 -437 249 -818 16 -150 25 -7052 8 -7410 -19 -424 -62 -652 -165 -868
-105 -222 -294 -417 -556 -574 -68 -41 -79 -52 -79 -75 l0 -28 3794 0 3794 0
6 28 c11 56 456 3042 456 3062 0 19 -5 21 -71 18 l-71 -3 -52 -150 c-75 -215
-117 -316 -215 -520 -214 -442 -442 -768 -760 -1085 -191 -191 -305 -285 -516
-425 -337 -225 -720 -384 -1125 -465 -317 -64 -287 -63 -1527 -67 l-1133 -4 0
4208 c0 4035 4 4541 30 4753 27 212 96 407 194 544 82 114 238 251 374 328 34
20 52 36 52 49 0 19 -34 19 -1619 19 -1069 0 -1622 -3 -1626 -10z"/>
<path d="M31864 10278 c-4 -6 -1 -16 7 -20 8 -5 64 -36 124 -69 143 -79 246
-154 334 -242 82 -84 109 -119 158 -205 73 -130 120 -289 149 -509 14 -104 17
-568 26 -4038 11 -4034 10 -4164 -27 -4380 -38 -220 -107 -359 -244 -495 -81
-80 -219 -181 -338 -246 -32 -18 -53 -36 -53 -46 0 -17 84 -18 1626 -18 1843
0 1688 -9 1531 86 -145 87 -245 164 -329 252 -63 68 -88 103 -127 185 -93 194
-109 303 -121 817 -5 212 -10 934 -12 1605 -3 1338 -4 1306 58 1627 157 810
601 1303 1222 1357 210 19 411 -13 571 -89 311 -149 497 -430 584 -880 l22
-115 1 -1470 c1 -1495 3 -1609 40 -1865 74 -520 252 -957 484 -1191 159 -160
352 -254 611 -298 251 -42 453 -37 999 23 168 19 338 37 378 41 50 5 72 11 72
20 0 8 -28 30 -62 51 -245 147 -401 288 -475 429 -51 97 -87 220 -110 369 -15
100 -17 304 -23 1996 -7 2054 -4 1950 -65 2267 -117 609 -406 1080 -844 1374
-231 155 -504 256 -831 306 -159 24 -519 24 -681 0 -477 -71 -872 -261 -1206
-580 -314 -300 -570 -735 -717 -1217 l-35 -115 -3 2645 -3 2645 -1342 3
c-1030 1 -1343 -1 -1349 -10z"/>
<path d="M27570 6929 c-593 -18 -1062 -134 -1495 -368 -468 -253 -735 -576
-816 -986 -20 -102 -18 -349 5 -453 23 -107 107 -352 121 -352 1 0 250 137
552 305 l550 305 -28 86 c-47 138 -62 249 -56 404 6 155 21 217 81 345 79 166
196 274 415 384 265 132 567 201 881 201 225 -1 376 -29 526 -99 164 -77 266
-167 370 -327 134 -205 194 -420 194 -693 0 -196 -49 -339 -171 -501 -112
-148 -215 -223 -504 -365 -239 -117 -367 -172 -625 -270 -467 -176 -1117 -452
-1388 -589 -163 -83 -268 -149 -423 -266 -494 -372 -637 -538 -801 -931 -113
-272 -147 -422 -155 -694 -19 -645 199 -1177 645 -1578 434 -390 1049 -540
1697 -416 157 30 414 117 568 193 364 178 840 538 1092 825 39 44 73 80 78 80
4 1 7 -256 7 -570 l0 -571 23 5 c12 3 531 112 1152 243 622 130 1133 240 1138
243 4 4 -70 63 -165 132 -95 68 -200 151 -234 184 -66 65 -87 107 -120 246
-17 69 -18 203 -24 2034 -6 1924 -7 1962 -27 2070 -103 546 -364 932 -849
1251 -438 289 -1067 468 -1724 490 -80 2 -172 6 -205 7 -33 2 -161 0 -285 -4z
m1258 -5637 c-275 -280 -633 -486 -968 -558 -122 -26 -347 -24 -451 4 -160 43
-300 125 -433 252 -210 202 -333 480 -386 875 -21 154 -24 497 -6 649 59 505
252 938 595 1329 165 189 307 300 666 515 669 402 862 541 992 719 l48 65 3
-1893 2 -1893 -62 -64z"/>
<path d="M42210 3504 c-397 -49 -724 -204 -1007 -477 -164 -159 -265 -293
-353 -472 -112 -225 -161 -408 -179 -668 -23 -309 34 -629 158 -891 128 -273
355 -533 619 -709 443 -296 1042 -367 1571 -185 446 153 844 529 1025 969 101
246 144 526 125 815 -16 240 -65 433 -164 641 -93 196 -197 335 -381 513 -240
230 -517 374 -849 440 -88 18 -151 23 -320 25 -115 2 -226 1 -245 -1z"/>
</g>
</svg>
